<?xml version="1.0" encoding="UTF-8" standalone="no"?>
<!DOCTYPE svg PUBLIC "-//W3C//DTD SVG 1.1//EN" "http://www.w3.org/Graphics/SVG/1.1/DTD/svg11.dtd">
<svg width="100%" height="100%" viewBox="0 0 4083 4083" version="1.1" xmlns="http://www.w3.org/2000/svg" xmlns:xlink="http://www.w3.org/1999/xlink" xml:space="preserve" xmlns:serif="http://www.serif.com/" style="fill-rule:evenodd;clip-rule:evenodd;stroke-linejoin:round;stroke-miterlimit:2;">
    <g transform="matrix(0.966619,0,0,0.986947,136.293,98.6947)">
        <rect x="-141" y="-100" width="4224" height="4137" style="fill:rgb(15,15,15);"/>
    </g>
    <g transform="matrix(0.958359,0,0,0.958359,85.0108,85.0108)">
        <g transform="matrix(48.5151,0,0,47.5689,-1136.24,-1074.27)">
            <g>
                <path d="M77.417,53.583L77.417,22.583L53.583,22.583L53.583,53.583L23.42,53.583L23.42,77.417L53.583,77.417L53.583,108.417L77.417,108.417L77.417,77.417L107.58,77.417L107.58,53.583L77.417,53.583ZM59,103L72,103L72,78L59,78L59,103ZM58.417,58.417L58.417,72.583L72.583,72.583L72.583,58.417L58.417,58.417ZM103,72L103,59L78,59L78,72L103,72ZM53,72L53,59L28,59L28,72L53,72ZM59,53L72,53L72,28L59,28L59,53Z" style="fill:rgb(15,15,15);"/>
            </g>
            <g>
                <g transform="matrix(6.12323e-17,1,-1,6.12323e-17,81,3.06162e-15)">
                    <rect x="59" y="28" width="13" height="25" style="fill:rgb(255,0,236);"/>
                </g>
                <g transform="matrix(6.12323e-17,1,-1,6.12323e-17,131,3.06162e-15)">
                    <rect x="59" y="28" width="13" height="25" style="fill:rgb(255,0,236);"/>
                </g>
                <g transform="matrix(-1,1.22465e-16,-1.22465e-16,-1,131,81)">
                    <rect x="59" y="28" width="13" height="25" style="fill:rgb(255,0,236);"/>
                </g>
                <g transform="matrix(-1,1.22465e-16,-1.22465e-16,-1,131,131)">
                    <rect x="59" y="28" width="13" height="25" style="fill:rgb(255,0,236);"/>
                </g>
            </g>
        </g>
        <g transform="matrix(0.162712,0,0,0.162894,1720.79,1720.84)">
            <rect x="-141" y="-100" width="4224" height="4137" style="fill:rgb(70,47,49);"/>
        </g>
        <g>
            <g transform="matrix(29.8872,0,0,29.8872,1763.55,2290.01)">
                <path d="M10.433,0L10.433,-0.472C10.574,-0.472 10.726,-0.483 10.889,-0.505C11.051,-0.526 11.201,-0.567 11.336,-0.627C11.472,-0.686 11.583,-0.77 11.67,-0.879C11.757,-0.987 11.8,-1.128 11.8,-1.302C11.8,-1.389 11.765,-1.495 11.694,-1.619C11.624,-1.744 11.537,-1.869 11.434,-1.994C11.331,-2.119 11.228,-2.235 11.125,-2.344C11.021,-2.452 10.937,-2.539 10.872,-2.604L5.859,-7.601L5.127,-6.868L5.127,-2.93C5.127,-2.42 5.151,-2.005 5.2,-1.685C5.249,-1.364 5.357,-1.115 5.526,-0.936C5.694,-0.757 5.935,-0.635 6.25,-0.57C6.565,-0.505 6.982,-0.472 7.503,-0.472L7.503,0L0.439,0L0.439,-0.472C0.971,-0.472 1.392,-0.505 1.701,-0.57C2.01,-0.635 2.243,-0.757 2.401,-0.936C2.558,-1.115 2.658,-1.364 2.702,-1.685C2.745,-2.005 2.767,-2.42 2.767,-2.93L2.767,-13.704C2.767,-14.203 2.745,-14.613 2.702,-14.933C2.658,-15.253 2.558,-15.508 2.401,-15.698C2.243,-15.888 2.01,-16.018 1.701,-16.089C1.392,-16.159 0.971,-16.194 0.439,-16.194L0.439,-16.634L7.503,-16.634L7.503,-16.194C6.993,-16.194 6.584,-16.159 6.274,-16.089C5.965,-16.018 5.724,-15.891 5.55,-15.706C5.376,-15.522 5.263,-15.269 5.208,-14.949C5.154,-14.629 5.127,-14.214 5.127,-13.704L5.127,-8.463C6.19,-9.462 7.126,-10.343 7.934,-11.108C8.743,-11.873 9.416,-12.538 9.953,-13.102C10.49,-13.666 10.894,-14.144 11.165,-14.534C11.437,-14.925 11.572,-15.245 11.572,-15.495C11.572,-15.657 11.531,-15.785 11.45,-15.877C11.369,-15.969 11.26,-16.04 11.125,-16.089C10.989,-16.138 10.829,-16.167 10.644,-16.178C10.46,-16.189 10.265,-16.194 10.058,-16.194L10.058,-16.634L16.194,-16.634L16.194,-16.194C15.76,-16.194 15.345,-16.113 14.949,-15.95C14.553,-15.788 14.125,-15.53 13.664,-15.177C13.202,-14.825 12.684,-14.369 12.109,-13.81C11.534,-13.251 10.851,-12.576 10.058,-11.784L7.503,-9.228L13.672,-3.141C14.03,-2.783 14.38,-2.452 14.722,-2.148C15.063,-1.845 15.416,-1.576 15.779,-1.343C16.143,-1.109 16.534,-0.917 16.951,-0.765C17.369,-0.613 17.838,-0.515 18.359,-0.472L18.359,0L10.433,0Z" style="fill:white;fill-rule:nonzero;"/>
            </g>
            <g transform="matrix(-29.8872,0,0,29.8872,2319.45,2290.01)">
                <path d="M10.433,0L10.433,-0.472C10.574,-0.472 10.726,-0.483 10.889,-0.505C11.051,-0.526 11.201,-0.567 11.336,-0.627C11.472,-0.686 11.583,-0.77 11.67,-0.879C11.757,-0.987 11.8,-1.128 11.8,-1.302C11.8,-1.389 11.765,-1.495 11.694,-1.619C11.624,-1.744 11.537,-1.869 11.434,-1.994C11.331,-2.119 11.228,-2.235 11.125,-2.344C11.021,-2.452 10.937,-2.539 10.872,-2.604L5.859,-7.601L5.127,-6.868L5.127,-2.93C5.127,-2.42 5.151,-2.005 5.2,-1.685C5.249,-1.364 5.357,-1.115 5.526,-0.936C5.694,-0.757 5.935,-0.635 6.25,-0.57C6.565,-0.505 6.982,-0.472 7.503,-0.472L7.503,0L0.439,0L0.439,-0.472C0.971,-0.472 1.392,-0.505 1.701,-0.57C2.01,-0.635 2.243,-0.757 2.401,-0.936C2.558,-1.115 2.658,-1.364 2.702,-1.685C2.745,-2.005 2.767,-2.42 2.767,-2.93L2.767,-13.704C2.767,-14.203 2.745,-14.613 2.702,-14.933C2.658,-15.253 2.558,-15.508 2.401,-15.698C2.243,-15.888 2.01,-16.018 1.701,-16.089C1.392,-16.159 0.971,-16.194 0.439,-16.194L0.439,-16.634L7.503,-16.634L7.503,-16.194C6.993,-16.194 6.584,-16.159 6.274,-16.089C5.965,-16.018 5.724,-15.891 5.55,-15.706C5.376,-15.522 5.263,-15.269 5.208,-14.949C5.154,-14.629 5.127,-14.214 5.127,-13.704L5.127,-8.463C6.19,-9.462 7.126,-10.343 7.934,-11.108C8.743,-11.873 9.416,-12.538 9.953,-13.102C10.49,-13.666 10.894,-14.144 11.165,-14.534C11.437,-14.925 11.572,-15.245 11.572,-15.495C11.572,-15.657 11.531,-15.785 11.45,-15.877C11.369,-15.969 11.26,-16.04 11.125,-16.089C10.989,-16.138 10.829,-16.167 10.644,-16.178C10.46,-16.189 10.265,-16.194 10.058,-16.194L10.058,-16.634L16.194,-16.634L16.194,-16.194C15.76,-16.194 15.345,-16.113 14.949,-15.95C14.553,-15.788 14.125,-15.53 13.664,-15.177C13.202,-14.825 12.684,-14.369 12.109,-13.81C11.534,-13.251 10.851,-12.576 10.058,-11.784L7.503,-9.228L13.672,-3.141C14.03,-2.783 14.38,-2.452 14.722,-2.148C15.063,-1.845 15.416,-1.576 15.779,-1.343C16.143,-1.109 16.534,-0.917 16.951,-0.765C17.369,-0.613 17.838,-0.515 18.359,-0.472L18.359,0L10.433,0Z" style="fill:white;fill-rule:nonzero;"/>
            </g>
        </g>
        <g transform="matrix(1.16232,0,0,0.989627,2619.64,34.624)">
            <rect x="0" y="2592.91" width="1259" height="1490.09" style="fill:rgb(0,61,255);"/>
        </g>
        <g transform="matrix(1.16232,0,0,0.989627,-1.04592e-11,34.624)">
            <rect x="0" y="2592.91" width="1259" height="1490.09" style="fill:rgb(0,125,255);"/>
        </g>
        <g transform="matrix(1.16232,0,0,0.989627,2619.64,-2566.01)">
            <rect x="0" y="2592.91" width="1259" height="1490.09" style="fill:rgb(255,8,0);"/>
        </g>
        <g transform="matrix(1.16232,0,0,0.989627,0,-2566.01)">
            <rect x="0" y="2592.91" width="1259" height="1490.09" style="fill:rgb(255,71,0);"/>
        </g>
        <g transform="matrix(48.0796,0,0,48.0796,430.817,1298.23)">
            <path d="M0.439,-9.782L5.143,-9.782L5.143,-4.248C5.143,-3.673 5.452,-3.385 6.071,-3.385C6.689,-3.385 6.999,-3.673 6.999,-4.248L6.999,-9.652C6.999,-10.27 6.844,-10.691 6.535,-10.913C6.226,-11.135 5.648,-11.247 4.801,-11.247L4.801,-13.883C6.266,-13.883 6.999,-14.339 6.999,-15.25L6.999,-19.385C6.999,-19.851 6.689,-20.084 6.071,-20.084C5.431,-20.084 5.111,-19.851 5.111,-19.385L5.111,-15.088L0.57,-15.088L0.57,-19.417C0.57,-22.173 2.479,-23.551 6.299,-23.551C7.829,-23.551 9.163,-23.22 10.303,-22.558C11.442,-21.896 12.012,-20.849 12.012,-19.417L12.012,-16.211C12.012,-14.344 11.122,-13.091 9.342,-12.451C11.165,-11.919 12.077,-10.476 12.077,-8.122L12.077,-4.655C12.077,-1.411 10.151,0.212 6.299,0.212C2.393,0.212 0.439,-1.264 0.439,-4.215L0.439,-9.782Z" style="fill:rgb(0,255,255);fill-rule:nonzero;"/>
        </g>
        <g transform="matrix(54.0645,0,0,54.0645,3007.45,3968.82)">
            <path d="M0.505,0L0.505,-23.34L6.885,-23.34C8.274,-23.34 9.511,-22.963 10.596,-22.208C11.681,-21.454 12.223,-20.296 12.223,-18.734L12.223,-4.606C12.223,-3.152 11.716,-2.021 10.701,-1.213C9.687,-0.404 8.425,0 6.917,0L0.505,0ZM7.064,-4.232L7.064,-19.108C7.064,-19.922 6.586,-20.329 5.631,-20.329L5.631,-2.995C6.586,-2.995 7.064,-3.407 7.064,-4.232Z" style="fill:rgb(0,255,255);fill-rule:nonzero;"/>
        </g>
        <g transform="matrix(54.0645,0,0,54.0645,3007.45,1368.12)">
            <path d="M0.505,0L0.505,-23.34L6.885,-23.34C8.274,-23.34 9.511,-22.963 10.596,-22.208C11.681,-21.454 12.223,-20.296 12.223,-18.734L12.223,-4.606C12.223,-3.152 11.716,-2.021 10.701,-1.213C9.687,-0.404 8.425,0 6.917,0L0.505,0ZM7.064,-4.232L7.064,-19.108C7.064,-19.922 6.586,-20.329 5.631,-20.329L5.631,-2.995C6.586,-2.995 7.064,-3.407 7.064,-4.232Z" style="fill:rgb(0,255,255);fill-rule:nonzero;"/>
        </g>
        <g transform="matrix(51.0255,0,0,51.0255,411.593,3946.37)">
            <path d="M12.126,0L0.423,0L0.423,-3.092L6.185,-13.672C6.814,-14.822 7.129,-16.395 7.129,-18.392C7.129,-19.433 6.782,-19.954 6.087,-19.954C5.371,-19.954 5.013,-19.629 5.013,-18.978L5.013,-14.974L0.423,-14.974L0.423,-19.043C0.423,-22.048 2.355,-23.551 6.217,-23.551C8.605,-23.551 10.186,-23.001 10.962,-21.899C11.738,-20.798 12.126,-18.989 12.126,-16.471C12.126,-15.484 11.957,-14.67 11.621,-14.03L5.859,-2.995L12.126,-2.995L12.126,0Z" style="fill:rgb(0,255,255);fill-rule:nonzero;"/>
        </g>
    </g>
</svg>
