<?xml version="1.0" encoding="UTF-8" standalone="no"?>
<!DOCTYPE svg PUBLIC "-//W3C//DTD SVG 1.1//EN" "http://www.w3.org/Graphics/SVG/1.1/DTD/svg11.dtd">
<svg width="100%" height="100%" viewBox="0 0 2560 1440" version="1.1" xmlns="http://www.w3.org/2000/svg" xmlns:xlink="http://www.w3.org/1999/xlink" xml:space="preserve" xmlns:serif="http://www.serif.com/" style="fill-rule:evenodd;clip-rule:evenodd;stroke-linejoin:round;stroke-miterlimit:2;">
    <g transform="matrix(0.606061,0,0,0.348078,85.4545,34.8078)">
        <rect x="-141" y="-100" width="4224" height="4137" style="fill:rgb(15,15,15);"/>
    </g>
    <g transform="matrix(0.337247,0,0,0.337247,591.511,31.5108)">
        <g transform="matrix(48.5151,0,0,47.5689,-1136.24,-1074.27)">
            <g>
                <path d="M77.417,53.583L77.417,22.583L53.583,22.583L53.583,53.583L23.42,53.583L23.42,77.417L53.583,77.417L53.583,108.417L77.417,108.417L77.417,77.417L107.58,77.417L107.58,53.583L77.417,53.583ZM59,103L72,103L72,78L59,78L59,103ZM58.417,58.417L58.417,72.583L72.583,72.583L72.583,58.417L58.417,58.417ZM103,72L103,59L78,59L78,72L103,72ZM53,72L53,59L28,59L28,72L53,72ZM59,53L72,53L72,28L59,28L59,53Z" style="fill:rgb(15,15,15);"/>
            </g>
            <g>
                <g transform="matrix(6.12323e-17,1,-1,6.12323e-17,81,3.06162e-15)">
                    <rect x="59" y="28" width="13" height="25" style="fill:rgb(255,0,236);"/>
                </g>
                <g transform="matrix(6.12323e-17,1,-1,6.12323e-17,131,3.06162e-15)">
                    <rect x="59" y="28" width="13" height="25" style="fill:rgb(255,0,236);"/>
                </g>
                <g transform="matrix(-1,1.22465e-16,-1.22465e-16,-1,131,81)">
                    <rect x="59" y="28" width="13" height="25" style="fill:rgb(255,0,236);"/>
                </g>
                <g transform="matrix(-1,1.22465e-16,-1.22465e-16,-1,131,131)">
                    <rect x="59" y="28" width="13" height="25" style="fill:rgb(255,0,236);"/>
                </g>
            </g>
        </g>
        <g transform="matrix(0.162712,0,0,0.162894,1720.79,1720.84)">
            <rect x="-141" y="-100" width="4224" height="4137" style="fill:rgb(70,47,49);"/>
        </g>
        <g>
            <g transform="matrix(29.8872,0,0,29.8872,-45837.2,-52899.1)">
                <text x="1592.68px" y="1846.58px" style="font-family:'Scheherazade-Regular', 'Scheherazade';font-size:33.333px;fill:white;">K</text>
            </g>
            <g transform="matrix(-29.8872,0,0,29.8872,49920.2,-52899.1)">
                <text x="1592.68px" y="1846.58px" style="font-family:'Scheherazade-Regular', 'Scheherazade';font-size:33.333px;fill:white;">K</text>
            </g>
        </g>
        <g transform="matrix(1.16232,0,0,0.989627,2619.64,34.624)">
            <rect x="0" y="2592.91" width="1259" height="1490.09" style="fill:rgb(0,61,255);"/>
        </g>
        <g transform="matrix(1.16232,0,0,0.989627,-1.04592e-11,34.624)">
            <rect x="0" y="2592.91" width="1259" height="1490.09" style="fill:rgb(0,125,255);"/>
        </g>
        <g transform="matrix(1.16232,0,0,0.989627,2619.64,-2566.01)">
            <rect x="0" y="2592.91" width="1259" height="1490.09" style="fill:rgb(255,8,0);"/>
        </g>
        <g transform="matrix(1.16232,0,0,0.989627,0,-2566.01)">
            <rect x="0" y="2592.91" width="1259" height="1490.09" style="fill:rgb(255,71,0);"/>
        </g>
        <g transform="matrix(48.0796,0,0,48.0796,-76144.6,-87484.6)">
            <text x="1592.68px" y="1846.58px" style="font-family:'Haettenschweiler', sans-serif;font-weight:500;font-size:33.333px;fill:rgb(0,255,255);">3</text>
        </g>
        <g transform="matrix(54.0645,0,0,54.0645,-83100,-95865.6)">
            <text x="1592.68px" y="1846.58px" style="font-family:'Haettenschweiler', sans-serif;font-weight:500;font-size:33.333px;fill:rgb(0,255,255);">D</text>
        </g>
        <g transform="matrix(54.0645,0,0,54.0645,-83100,-98466.3)">
            <text x="1592.68px" y="1846.58px" style="font-family:'Haettenschweiler', sans-serif;font-weight:500;font-size:33.333px;fill:rgb(0,255,255);">D</text>
        </g>
        <g transform="matrix(51.0255,0,0,51.0255,-80855.7,-90276.3)">
            <text x="1592.68px" y="1846.58px" style="font-family:'Haettenschweiler', sans-serif;font-weight:500;font-size:33.333px;fill:rgb(0,255,255);">2</text>
        </g>
    </g>
</svg>
