<?xml version="1.0" encoding="UTF-8" standalone="no"?>
<svg
   width="36"
   height="36"
   viewBox="0 0 36 36"
   version="1.1"
   xml:space="preserve"
   style="clip-rule:evenodd;fill-rule:evenodd;stroke-linejoin:round;stroke-miterlimit:2"
   id="svg21"
   sodipodi:docname="export-file.svg"
   inkscape:version="1.3 (0e150ed6c4, 2023-07-21)"
   xmlns:inkscape="http://www.inkscape.org/namespaces/inkscape"
   xmlns:sodipodi="http://sodipodi.sourceforge.net/DTD/sodipodi-0.dtd"
   xmlns="http://www.w3.org/2000/svg"
   xmlns:svg="http://www.w3.org/2000/svg"><defs
   id="defs21" /><sodipodi:namedview
   id="namedview21"
   pagecolor="#505050"
   bordercolor="#eeeeee"
   borderopacity="1"
   inkscape:showpageshadow="0"
   inkscape:pageopacity="0"
   inkscape:pagecheckerboard="0"
   inkscape:deskcolor="#505050"
   inkscape:zoom="1.2164384"
   inkscape:cx="-251.96508"
   inkscape:cy="202.22972"
   inkscape:window-width="1920"
   inkscape:window-height="1017"
   inkscape:window-x="-8"
   inkscape:window-y="-8"
   inkscape:window-maximized="1"
   inkscape:current-layer="svg21" />&#10;    &#10;    &#10;<path
   id="rect2"
   style="fill:#cbffed;fill-opacity:1;stroke:none;stroke-width:7.00819;stroke-linecap:round;stroke-linejoin:round;stroke-dasharray:none;stroke-opacity:1;paint-order:stroke fill markers"
   d="m 17.910977,33.815776 c 3.541618,0 6.482183,-2.94224 6.482183,-6.483857 v -3.616288 h -5.76194 v 3.616288 c 0,0.448581 -0.271661,0.720242 -0.720243,0.720242 H 6.483857 c -0.448581,0 -0.720242,-0.271661 -0.720242,-0.720242 V 9.07461 c 0,-0.448582 0.271661,-0.720243 0.720242,-0.720243 h 11.42712 c 0.448582,0 0.720243,0.271661 0.720243,0.720243 v 3.617962 h 5.76194 V 9.07461 c 0,-3.541618 -2.940565,-6.482183 -6.482183,-6.482183 H 6.483857 C 2.94224,2.592427 0,5.532992 0,9.07461 v 18.257309 c 0,3.541617 2.94224,6.483857 6.483857,6.483857 z"
   sodipodi:nodetypes="ssccssssssssccsssssss" /><path
   id="path1"
   style="fill:#cbffed;fill-opacity:1;stroke:none;stroke-width:7.23485;stroke-linecap:round;stroke-linejoin:round;stroke-dasharray:none;stroke-opacity:1;paint-order:stroke fill markers"
   d="M 27.588067,9.9508927 V 16.049651 H 10.4505 v 2.154913 2.154914 h 17.137567 v 6.098758 L 36,18.204564 Z" /></svg>
