<?xml version="1.0" encoding="UTF-8" standalone="no"?>
<svg
   width="36"
   height="36"
   viewBox="0 0 36 36"
   version="1.1"
   xml:space="preserve"
   style="clip-rule:evenodd;fill-rule:evenodd;stroke-linejoin:round;stroke-miterlimit:2"
   id="svg21"
   sodipodi:docname="folder.svg"
   inkscape:version="1.3 (0e150ed6c4, 2023-07-21)"
   xmlns:inkscape="http://www.inkscape.org/namespaces/inkscape"
   xmlns:sodipodi="http://sodipodi.sourceforge.net/DTD/sodipodi-0.dtd"
   xmlns="http://www.w3.org/2000/svg"
   xmlns:svg="http://www.w3.org/2000/svg"><defs
   id="defs21"><inkscape:path-effect
     effect="fillet_chamfer"
     id="path-effect1"
     is_visible="true"
     lpeversion="1"
     nodesatellites_param="F,0,0,1,0,0,0,1 @ F,0,0,1,0,0,0,1 @ F,0,0,1,0,0,0,1 @ F,0,0,1,0,0,0,1 @ F,0,0,1,0,0,0,1 @ F,0,0,1,0,0,0,1 @ F,0,0,1,0,0,0,1"
     radius="0"
     unit="px"
     method="auto"
     mode="F"
     chamfer_steps="1"
     flexible="false"
     use_knot_distance="true"
     apply_no_radius="true"
     apply_with_radius="true"
     only_selected="false"
     hide_knots="false" /></defs><sodipodi:namedview
   id="namedview21"
   pagecolor="#505050"
   bordercolor="#eeeeee"
   borderopacity="1"
   inkscape:showpageshadow="0"
   inkscape:pageopacity="0"
   inkscape:pagecheckerboard="0"
   inkscape:deskcolor="#505050"
   inkscape:zoom="19.539574"
   inkscape:cx="-1.6888802"
   inkscape:cy="22.62076"
   inkscape:window-width="1920"
   inkscape:window-height="1017"
   inkscape:window-x="-8"
   inkscape:window-y="-8"
   inkscape:window-maximized="1"
   inkscape:current-layer="svg21" />&#10;    &#10;    &#10;<path
   id="rect1"
   style="fill:#d59300;stroke-width:7.55906;stroke-linecap:round;stroke-dasharray:7.55906, 15.1181;fill-opacity:1"
   d="M 3.1380754,0 H 18.390986 c 3.565272,0 4.173735,4.9629807 7.261118,4.9629807 V 32.861925 C 25.652104,34.600418 24.252522,36 22.514029,36 H 3.1380754 C 1.3995816,36 0,34.600418 0,32.861925 V 3.1380754 C 0,1.3995816 1.3995816,0 3.1380754,0 Z"
   sodipodi:nodetypes="sscssssss" /><path
   id="rect1-3"
   style="fill:#efb931;stroke-width:7.55906;stroke-linecap:round;stroke-dasharray:7.55906, 15.1181;fill-opacity:1"
   d="M 32.861925,4.9629807 C 34.600418,4.9629807 36,6.4181787 36,8.1566727 V 32.861925 C 36,34.600418 34.600418,36 32.861925,36 H 3.1380754 C 1.3995816,36 0,34.600418 0,32.861925 V 8.7677204 l 18.712299,0 c 2.896784,0 3.583424,-3.8047397 6.396566,-3.8047397 z"
   sodipodi:nodetypes="sssssccccs" /><path
   id="rect2-0-4"
   style="clip-rule:evenodd;fill:#d59300;fill-opacity:1;fill-rule:evenodd;stroke-width:6.83311;stroke-linecap:round;stroke-linejoin:round;stroke-miterlimit:2;stroke-dasharray:6.83311, 13.6663"
   d="m 13.346145,24.026396 c -2.03502,1.450195 -3.3590812,3.828903 -3.3590812,6.52906 v 1.191475 H 26.012937 v -1.191475 c 0,-2.700157 -1.324062,-5.078865 -3.359082,-6.52906 a 7.0879868,7.0879868 0 0 1 -4.653306,1.743487 7.0879868,7.0879868 0 0 1 -4.654404,-1.743487 z" /><circle
   style="clip-rule:evenodd;fill:#d59300;fill-opacity:1;fill-rule:evenodd;stroke-width:4.23055;stroke-linecap:round;stroke-linejoin:round;stroke-miterlimit:2;stroke-dasharray:4.23055, 8.46111"
   id="path2-9-3"
   cx="18.000015"
   cy="18.681513"
   r="5.554019" /></svg>
