<?xml version="1.0" encoding="UTF-8" standalone="no"?>
<svg
   width="36"
   height="36"
   viewBox="0 0 36 36"
   version="1.1"
   xml:space="preserve"
   style="clip-rule:evenodd;fill-rule:evenodd;stroke-linejoin:round;stroke-miterlimit:2"
   id="svg21"
   sodipodi:docname="import-file.svg"
   inkscape:version="1.3 (0e150ed6c4, 2023-07-21)"
   xmlns:inkscape="http://www.inkscape.org/namespaces/inkscape"
   xmlns:sodipodi="http://sodipodi.sourceforge.net/DTD/sodipodi-0.dtd"
   xmlns="http://www.w3.org/2000/svg"
   xmlns:svg="http://www.w3.org/2000/svg"><defs
   id="defs21" /><sodipodi:namedview
   id="namedview21"
   pagecolor="#505050"
   bordercolor="#eeeeee"
   borderopacity="1"
   inkscape:showpageshadow="0"
   inkscape:pageopacity="0"
   inkscape:pagecheckerboard="0"
   inkscape:deskcolor="#505050"
   inkscape:zoom="6.8812147"
   inkscape:cx="-5.7402656"
   inkscape:cy="49.700527"
   inkscape:window-width="1920"
   inkscape:window-height="1017"
   inkscape:window-x="-8"
   inkscape:window-y="-8"
   inkscape:window-maximized="1"
   inkscape:current-layer="svg21" />&#10;    &#10;    &#10;<path
   id="rect2"
   style="fill:#f6ffcb;fill-opacity:1;stroke:none;stroke-width:7.00819;stroke-linecap:round;stroke-linejoin:round;stroke-dasharray:none;stroke-opacity:1;paint-order:stroke fill markers"
   d="m 11.667037,2.592427 c -3.5416182,0 -6.482183,2.9422398 -6.482183,6.4838573 v 3.6162877 h 5.76194 V 9.0762843 c 0,-0.4485809 0.271661,-0.7202425 0.720243,-0.7202425 h 18.257309 c 0.448581,0 0.720242,0.2716616 0.720242,0.7202425 V 27.333593 c 0,0.448582 -0.271661,0.720243 -0.720242,0.720243 H 11.667037 c -0.448582,0 -0.720243,-0.271661 -0.720243,-0.720243 v -3.617962 h -5.76194 v 3.617962 c 0,3.541618 2.9405648,6.482183 6.482183,6.482183 h 18.257309 c 3.541617,0 6.483857,-2.940565 6.483857,-6.482183 V 9.0762843 c 0,-3.5416175 -2.94224,-6.4838573 -6.483857,-6.4838573 z"
   sodipodi:nodetypes="ssccssssssssccsssssss" /><path
   id="path1"
   style="fill:#f6ffcb;fill-opacity:1;stroke:none;stroke-width:7.23485;stroke-linecap:round;stroke-linejoin:round;stroke-dasharray:none;stroke-opacity:1;paint-order:stroke fill markers"
   d="M 17.137567,9.9508927 V 16.049651 H 0 v 2.154913 2.154914 h 17.137567 v 6.098758 L 25.5495,18.204564 Z" /></svg>
