<?xml version="1.0" encoding="UTF-8" standalone="no"?>
<svg
   width="36"
   height="36"
   viewBox="0 0 36 36"
   version="1.1"
   xml:space="preserve"
   style="clip-rule:evenodd;fill-rule:evenodd;stroke-linejoin:round;stroke-miterlimit:2"
   id="svg21"
   sodipodi:docname="settings.svg"
   inkscape:version="1.3 (0e150ed6c4, 2023-07-21)"
   xmlns:inkscape="http://www.inkscape.org/namespaces/inkscape"
   xmlns:sodipodi="http://sodipodi.sourceforge.net/DTD/sodipodi-0.dtd"
   xmlns="http://www.w3.org/2000/svg"
   xmlns:svg="http://www.w3.org/2000/svg"><defs
   id="defs21" /><sodipodi:namedview
   id="namedview21"
   pagecolor="#505050"
   bordercolor="#eeeeee"
   borderopacity="1"
   inkscape:showpageshadow="0"
   inkscape:pageopacity="0"
   inkscape:pagecheckerboard="0"
   inkscape:deskcolor="#505050"
   inkscape:zoom="4.8657536"
   inkscape:cx="35.451857"
   inkscape:cy="17.469031"
   inkscape:window-width="1920"
   inkscape:window-height="1017"
   inkscape:window-x="-8"
   inkscape:window-y="-8"
   inkscape:window-maximized="1"
   inkscape:current-layer="svg21" />&#10;    &#10;    &#10;<g
   id="g8-0-7-3"
   transform="matrix(0.86124402,0,0,0.86124402,-2.7129187,-3.5311005)"
   style="stroke-width:1.16111"><path
     fill="#607d8b"
     d="m 39.6,27.2 c 0.1,-0.7 0.2,-1.4 0.2,-2.2 0,-0.8 -0.1,-1.5 -0.2,-2.2 l 4.5,-3.2 c 0.4,-0.3 0.6,-0.9 0.3,-1.4 L 40,10.8 c -0.3,-0.5 -0.8,-0.7 -1.3,-0.4 l -5,2.3 C 32.5,11.8 31.3,11.1 29.9,10.5 L 29.4,5 C 29.3,4.5 28.9,4.1 28.4,4.1 h -8.6 c -0.5,0 -1,0.4 -1,0.9 l -0.5,5.5 c -1.4,0.6 -2.7,1.3 -3.8,2.2 l -5,-2.3 C 9,10.2 8.4,10.4 8.2,10.8 l -4.3,7.4 c -0.3,0.5 -0.1,1.1 0.3,1.4 l 4.5,3.2 c -0.1,0.7 -0.2,1.4 -0.2,2.2 0,0.8 0.1,1.5 0.2,2.2 L 4,30.4 C 3.6,30.7 3.4,31.3 3.7,31.8 L 8,39.2 c 0.3,0.5 0.8,0.7 1.3,0.4 l 5,-2.3 c 1.2,0.9 2.4,1.6 3.8,2.2 l 0.5,5.5 c 0.1,0.5 0.5,0.9 1,0.9 h 8.6 c 0.5,0 1,-0.4 1,-0.9 l 0.5,-5.5 c 1.4,-0.6 2.7,-1.3 3.8,-2.2 l 5,2.3 c 0.5,0.2 1.1,0 1.3,-0.4 l 4.3,-7.4 c 0.3,-0.5 0.1,-1.1 -0.3,-1.4 z M 24,35 c -5.5,0 -10,-4.5 -10,-10 0,-5.5 4.5,-10 10,-10 5.5,0 10,4.5 10,10 0,5.5 -4.5,10 -10,10 z"
     id="path1-8-9-9"
     style="stroke-width:1.16111" /><path
     fill="#455a64"
     d="m 24,13 c -6.6,0 -12,5.4 -12,12 0,6.6 5.4,12 12,12 6.6,0 12,-5.4 12,-12 0,-6.6 -5.4,-12 -12,-12 z m 0,17 c -2.8,0 -5,-2.2 -5,-5 0,-2.8 2.2,-5 5,-5 2.8,0 5,2.2 5,5 0,2.8 -2.2,5 -5,5 z"
     id="path2-0-3-7"
     style="stroke-width:1.16111" /></g></svg>
