<?xml version="1.0" encoding="UTF-8" standalone="no"?>
<!-- Uploaded to: SVG Repo, www.svgrepo.com, Generator: SVG Repo Mixer Tools -->

<svg
   version="1.1"
   id="Layer_1"
   viewBox="0 0 36 36"
   xml:space="preserve"
   sodipodi:docname="statistics.svg"
   inkscape:export-filename="statistics.svg"
   inkscape:export-xdpi="10.356918"
   inkscape:export-ydpi="10.356918"
   inkscape:version="1.4.2 (ebf0e940d0, 2025-05-08)"
   width="36"
   height="36"
   xmlns:inkscape="http://www.inkscape.org/namespaces/inkscape"
   xmlns:sodipodi="http://sodipodi.sourceforge.net/DTD/sodipodi-0.dtd"
   xmlns="http://www.w3.org/2000/svg"
   xmlns:svg="http://www.w3.org/2000/svg"><defs
   id="defs7">
	
	
	
	
</defs><sodipodi:namedview
   id="namedview7"
   pagecolor="#505050"
   bordercolor="#eeeeee"
   borderopacity="1"
   inkscape:showpageshadow="false"
   inkscape:pageopacity="0.0"
   inkscape:pagecheckerboard="0"
   inkscape:deskcolor="#505050"
   inkscape:zoom="5.67"
   inkscape:cx="14.197531"
   inkscape:cy="9.8765432"
   inkscape:window-width="1024"
   inkscape:window-height="696"
   inkscape:window-x="0"
   inkscape:window-y="0"
   inkscape:window-maximized="1"
   inkscape:current-layer="Layer_1" />
<g
   id="g1"><g
     id="g2"
     style="stroke-width:8.98996;stroke-dasharray:none"
     transform="matrix(0.11468986,0,0,0.10788456,-1.1354296,0)">
		<rect
   x="29.787001"
   y="181.064"
   style="fill:#ffc843;stroke-width:8.98996;stroke-dasharray:none"
   width="67.407997"
   height="152.625"
   id="rect1" />
		<rect
   x="9.8999996"
   y="181.064"
   style="fill:#e0b03b;stroke-width:8.98996;stroke-dasharray:none"
   width="19.888"
   height="152.625"
   id="rect2" />
	</g><g
     id="g4"
     style="stroke-width:8.98996;stroke-dasharray:none"
     transform="matrix(0.11468986,0,0,0.10788456,-1.1354296,0)">
		<rect
   x="143.08501"
   y="130.187"
   style="fill:#00af41;stroke-width:8.98996;stroke-dasharray:none"
   width="67.407997"
   height="203.50301"
   id="rect3" />
		<rect
   x="123.196"
   y="130.187"
   style="fill:#009638;stroke-width:8.98996;stroke-dasharray:none"
   width="19.889"
   height="203.50301"
   id="rect4" />
	</g><g
     id="g6"
     style="stroke-width:8.98996;stroke-dasharray:none"
     transform="matrix(0.11468986,0,0,0.10788456,-1.1354296,0)">
		<rect
   x="256.38199"
   y="82.189003"
   style="fill:#0071ce;stroke-width:8.98996;stroke-dasharray:none"
   width="67.407997"
   height="251.50101"
   id="rect5" />
		<rect
   x="236.493"
   y="82.189003"
   style="fill:#005fad;stroke-width:8.98996;stroke-dasharray:none"
   width="19.889"
   height="251.50101"
   id="rect6" />
	</g><polygon
     style="fill:#f9f9f9;stroke-width:8.98996;stroke-dasharray:none"
     points="104.016,111.421 79.564,86.969 11.934,154.598 21.834,164.497 79.564,106.768 104.016,131.22 187.868,47.369 214.7,74.202 260.954,27.95 279.003,46.001 279.003,0 233.003,0 251.053,18.05 214.7,54.403 187.868,27.57 "
     id="polygon6"
     transform="matrix(0.11468986,0,0,0.10788456,-1.1354296,0)" /></g>
</svg>
