<?xml version="1.0" encoding="UTF-8" standalone="no"?>
<svg
   width="400"
   height="200"
   viewBox="0 0 400 200"
   version="1.1"
   xml:space="preserve"
   style="clip-rule:evenodd;fill-rule:evenodd;stroke-linejoin:round;stroke-miterlimit:2"
   id="svg21"
   sodipodi:docname="horizontal.svg"
   inkscape:version="1.3 (0e150ed6c4, 2023-07-21)"
   xmlns:inkscape="http://www.inkscape.org/namespaces/inkscape"
   xmlns:sodipodi="http://sodipodi.sourceforge.net/DTD/sodipodi-0.dtd"
   xmlns="http://www.w3.org/2000/svg"
   xmlns:svg="http://www.w3.org/2000/svg"><defs
   id="defs21" /><sodipodi:namedview
   id="namedview21"
   pagecolor="#505050"
   bordercolor="#eeeeee"
   borderopacity="1"
   inkscape:showpageshadow="0"
   inkscape:pageopacity="0"
   inkscape:pagecheckerboard="0"
   inkscape:deskcolor="#505050"
   inkscape:zoom="1.7203037"
   inkscape:cx="104.34204"
   inkscape:cy="186.59496"
   inkscape:window-width="1920"
   inkscape:window-height="1017"
   inkscape:window-x="-8"
   inkscape:window-y="-8"
   inkscape:window-maximized="1"
   inkscape:current-layer="svg21" />&#10;    &#10;    &#10;<circle
   style="clip-rule:evenodd;fill:#455a64;fill-opacity:1;fill-rule:evenodd;stroke-width:10;stroke-linecap:round;stroke-linejoin:round;stroke-miterlimit:2"
   id="path1-5-89"
   cx="71.122917"
   cy="101.76179"
   r="27.902048" /><circle
   style="clip-rule:evenodd;fill:#455a64;fill-opacity:1;fill-rule:evenodd;stroke-width:10;stroke-linecap:round;stroke-linejoin:round;stroke-miterlimit:2"
   id="path1-5-64"
   cx="307.41354"
   cy="97.299301"
   r="27.902048" /><path
   style="color:#000000;clip-rule:evenodd;fill:#607d8b;fill-opacity:1;fill-rule:evenodd;stroke-width:1;stroke-linecap:round;stroke-linejoin:round;stroke-miterlimit:2;-inkscape-stroke:none;paint-order:stroke fill markers"
   d="m 296.77023,47.378104 v 10.22223 c -19.5702,1.58332 -35.24602,17.02448 -36.86949,36.38146 h -9.73443 v 6.635016 h 9.73443 c 1.62343,19.357 17.29926,34.79813 36.86949,36.38144 v 10.22225 h 6.63478 v -10.22247 c 19.57013,-1.58343 35.24605,-17.0243 36.86949,-36.38122 h 9.73443 v -6.635016 h -9.73443 c -1.62348,-19.3569 -17.29938,-34.79781 -36.86949,-36.38123 v -10.22246 z m 0,16.2137 v 5.90177 a 28.042935,28.042935 0 0 1 3.31727,-0.23723 28.042935,28.042935 0 0 1 3.31751,0.20525 v -5.86979 c 16.35465,1.53578 29.29706,14.30612 30.87663,30.38999 h -6.3562 a 28.042935,28.042935 0 0 1 0.20502,3.31752 28.042935,28.042935 0 0 1 -0.23725,3.317496 h 6.38843 c -1.57956,16.08386 -14.52198,28.85421 -30.87663,30.38998 v -5.90178 a 28.042935,28.042935 0 0 1 -3.31751,0.23724 28.042935,28.042935 0 0 1 -3.31727,-0.23724 v 5.90178 c -16.35464,-1.53576 -29.2971,-14.30612 -30.87663,-30.38998 h 6.38843 a 28.042935,28.042935 0 0 1 -0.23725,-3.317496 28.042935,28.042935 0 0 1 0.23725,-3.31752 h -6.38843 c 1.57954,-16.08388 14.52199,-28.85422 30.87663,-30.38999 z"
   id="path12" /><path
   style="fill:#607d8b;fill-opacity:1;stroke-width:10;stroke-linecap:round;stroke-linejoin:round"
   d="m 107.71215,100.186 111.74272,-3.334528 -0.35427,-14.141928 22.37853,18.557066 -20.29452,19.5116 -0.98585,-14.72578 -111.93428,-1.30306 z"
   id="path1"
   sodipodi:nodetypes="cccccccc" /></svg>
