<?xml version="1.0" encoding="UTF-8" standalone="no"?>
<svg
   width="400"
   height="200"
   viewBox="0 0 400 200"
   version="1.1"
   xml:space="preserve"
   style="clip-rule:evenodd;fill-rule:evenodd;stroke-linejoin:round;stroke-miterlimit:2"
   id="svg21"
   sodipodi:docname="tracking.svg"
   inkscape:version="1.3 (0e150ed6c4, 2023-07-21)"
   xmlns:inkscape="http://www.inkscape.org/namespaces/inkscape"
   xmlns:sodipodi="http://sodipodi.sourceforge.net/DTD/sodipodi-0.dtd"
   xmlns="http://www.w3.org/2000/svg"
   xmlns:svg="http://www.w3.org/2000/svg"><defs
   id="defs21" /><sodipodi:namedview
   id="namedview21"
   pagecolor="#505050"
   bordercolor="#eeeeee"
   borderopacity="1"
   inkscape:showpageshadow="0"
   inkscape:pageopacity="0"
   inkscape:pagecheckerboard="0"
   inkscape:deskcolor="#505050"
   inkscape:zoom="1.7203037"
   inkscape:cx="104.34204"
   inkscape:cy="186.59496"
   inkscape:window-width="1920"
   inkscape:window-height="1017"
   inkscape:window-x="-8"
   inkscape:window-y="-8"
   inkscape:window-maximized="1"
   inkscape:current-layer="svg21" />&#10;    &#10;    &#10;<circle
   style="clip-rule:evenodd;fill:#455a64;fill-opacity:1;fill-rule:evenodd;stroke-width:10;stroke-linecap:round;stroke-linejoin:round;stroke-miterlimit:2"
   id="path1-5-89"
   cx="200"
   cy="100"
   r="27.902048" /><path
   style="color:#000000;clip-rule:evenodd;fill:#607d8b;fill-opacity:1;fill-rule:evenodd;stroke-width:1;stroke-linecap:round;stroke-linejoin:round;stroke-miterlimit:2;-inkscape-stroke:none;paint-order:stroke fill markers"
   d="m 196.02604,40.337735 v 12.245736 c -23.44415,1.896741 -42.22302,20.394501 -44.16786,43.583225 h -11.66137 v 7.948414 h 11.66137 c 1.94479,23.18875 20.72368,41.68648 44.16786,43.5832 v 12.24576 h 7.94815 v -12.24602 c 23.44407,-1.89687 42.22306,-20.39429 44.16786,-43.58294 h 11.66137 V 96.166696 H 248.14205 C 246.1972,72.978068 227.41823,54.480607 203.97419,52.583747 V 40.337735 Z m 0,19.423227 v 7.070034 a 33.594076,33.594076 0 0 1 3.97393,-0.28419 33.594076,33.594076 0 0 1 3.97422,0.245879 v -7.031723 c 19.59208,1.83979 35.09646,17.138037 36.9887,36.405734 h -7.61442 a 33.594076,33.594076 0 0 1 0.24561,3.974224 33.594076,33.594076 0 0 1 -0.28421,3.97419 h 7.65302 c -1.89223,19.26769 -17.39662,34.56595 -36.9887,36.40573 v -7.07005 a 33.594076,33.594076 0 0 1 -3.97422,0.2842 33.594076,33.594076 0 0 1 -3.97393,-0.2842 v 7.07005 c -19.59206,-1.83977 -35.0965,-17.13804 -36.9887,-36.40573 h 7.65303 a 33.594076,33.594076 0 0 1 -0.28422,-3.97419 33.594076,33.594076 0 0 1 0.28422,-3.974224 h -7.65303 c 1.89221,-19.267709 17.39664,-34.565956 36.9887,-36.405734 z"
   id="path12" /><path
   style="fill:#607d8b;fill-opacity:1;stroke-width:10;stroke-linecap:round;stroke-linejoin:round"
   d="m 276.86832,98.109088 81.63647,-4.047366 -0.25883,-17.165109 16.3492,22.524091 -14.82668,23.682676 -0.72023,-17.87377 -81.77641,-1.58162 z"
   id="path1"
   sodipodi:nodetypes="cccccccc" /><path
   style="clip-rule:evenodd;fill:#607d8b;fill-opacity:1;fill-rule:evenodd;stroke-width:10;stroke-linecap:round;stroke-linejoin:round;stroke-miterlimit:2"
   d="m 123.13191,98.109088 -81.63647,-4.04736 0.25883,-17.16511 -16.3492,22.52409 14.82668,23.682682 0.72023,-17.87377 81.77641,-1.58162 z"
   id="path1-4"
   sodipodi:nodetypes="cccccccc" /></svg>
