<?xml version="1.0" encoding="UTF-8" standalone="no"?>
<svg
   width="400"
   height="200"
   viewBox="0 0 400 200"
   version="1.1"
   xml:space="preserve"
   style="clip-rule:evenodd;fill-rule:evenodd;stroke-linejoin:round;stroke-miterlimit:2"
   id="svg21"
   sodipodi:docname="moving.svg"
   inkscape:version="1.3 (0e150ed6c4, 2023-07-21)"
   xmlns:inkscape="http://www.inkscape.org/namespaces/inkscape"
   xmlns:sodipodi="http://sodipodi.sourceforge.net/DTD/sodipodi-0.dtd"
   xmlns="http://www.w3.org/2000/svg"
   xmlns:svg="http://www.w3.org/2000/svg"><defs
   id="defs21" /><sodipodi:namedview
   id="namedview21"
   pagecolor="#505050"
   bordercolor="#eeeeee"
   borderopacity="1"
   inkscape:showpageshadow="0"
   inkscape:pageopacity="0"
   inkscape:pagecheckerboard="0"
   inkscape:deskcolor="#505050"
   inkscape:zoom="2.4328768"
   inkscape:cx="187.22691"
   inkscape:cy="126.59909"
   inkscape:window-width="1920"
   inkscape:window-height="1017"
   inkscape:window-x="-8"
   inkscape:window-y="-8"
   inkscape:window-maximized="1"
   inkscape:current-layer="svg21" />&#10;    &#10;    &#10;<circle
   style="clip-rule:evenodd;fill:#455a64;fill-opacity:1;fill-rule:evenodd;stroke-width:10;stroke-linecap:round;stroke-linejoin:round;stroke-miterlimit:2"
   id="path1-5-89"
   cx="73.231621"
   cy="127.22342"
   r="27.902048" /><circle
   style="clip-rule:evenodd;fill:#455a64;fill-opacity:1;fill-rule:evenodd;stroke-width:10;stroke-linecap:round;stroke-linejoin:round;stroke-miterlimit:2"
   id="path1-5-64"
   cx="213.24161"
   cy="52.94791"
   r="27.902048" /><path
   style="fill:#607d8b;fill-opacity:1;stroke-width:10;stroke-linecap:round;stroke-linejoin:round"
   d="M 87.014715,120.25788 156.96892,72.081189 149.59115,60.011056 177.16014,63.004878 170.4303,91.937483 162.21363,79.677502 89.774729,123.93369 Z"
   id="path1"
   sodipodi:nodetypes="cccccccc" /><circle
   style="clip-rule:evenodd;fill:#455a64;fill-opacity:1;fill-rule:evenodd;stroke-width:10;stroke-linecap:round;stroke-linejoin:round;stroke-miterlimit:2"
   id="path1-5-89-8"
   cx="-353.06665"
   cy="-15.069429"
   r="27.902048"
   transform="rotate(-165)" /><circle
   style="clip-rule:evenodd;fill:#455a64;fill-opacity:1;fill-rule:evenodd;stroke-width:10;stroke-linecap:round;stroke-linejoin:round;stroke-miterlimit:2"
   id="path1-5-64-7"
   cx="-232.69299"
   cy="-93.908577"
   r="27.902048"
   transform="rotate(-165)" /><path
   style="clip-rule:evenodd;fill:#607d8b;fill-opacity:1;fill-rule:evenodd;stroke-width:10;stroke-linecap:round;stroke-linejoin:round;stroke-miterlimit:2"
   d="m 316.68374,110.09474 -80.03961,28.42962 4.0024,13.56837 -25.85474,-10.02719 13.98883,-26.20494 4.76358,13.96887 81.42495,-23.99964 z"
   id="path1-9"
   sodipodi:nodetypes="cccccccc" /><path
   style="color:#000000;clip-rule:evenodd;fill:#607d8b;fill-opacity:1;fill-rule:evenodd;stroke-width:1;stroke-linecap:round;stroke-linejoin:round;stroke-miterlimit:2;-inkscape-stroke:none;paint-order:stroke fill markers"
   d="m 220.42724,10.172481 v 10.22223 c -19.5702,1.58332 -35.24602,17.024482 -36.86949,36.381462 h -9.73443 v 6.63502 h 9.73443 c 1.62343,19.357 17.29926,34.79812 36.86949,36.38143 v 10.222247 h 6.63478 V 99.792403 c 19.57013,-1.58343 35.24605,-17.02429 36.86949,-36.38121 h 9.73443 v -6.63502 h -9.73443 c -1.62348,-19.3569 -17.29938,-34.797812 -36.86949,-36.381232 v -10.22246 z m 0,16.213702 v 5.90177 a 28.042935,28.042935 0 0 1 3.31727,-0.23723 28.042935,28.042935 0 0 1 3.31751,0.20525 v -5.86979 c 16.35465,1.53578 29.29706,14.30612 30.87663,30.38999 h -6.3562 a 28.042935,28.042935 0 0 1 0.20502,3.31752 28.042935,28.042935 0 0 1 -0.23725,3.3175 h 6.38843 c -1.57956,16.08386 -14.52198,28.8542 -30.87663,30.38997 v -5.90177 a 28.042935,28.042935 0 0 1 -3.31751,0.23724 28.042935,28.042935 0 0 1 -3.31727,-0.23724 v 5.90177 c -16.35464,-1.53576 -29.2971,-14.30611 -30.87663,-30.38997 h 6.38843 a 28.042935,28.042935 0 0 1 -0.23725,-3.3175 28.042935,28.042935 0 0 1 0.23725,-3.31752 h -6.38843 c 1.57954,-16.08388 14.52199,-28.85422 30.87663,-30.38999 z"
   id="path12" /></svg>
