<?xml version="1.0" encoding="UTF-8" standalone="no"?>
<svg
   width="400"
   height="200"
   viewBox="0 0 400 200"
   version="1.1"
   xml:space="preserve"
   style="clip-rule:evenodd;fill-rule:evenodd;stroke-linejoin:round;stroke-miterlimit:2"
   id="svg21"
   sodipodi:docname="random.svg"
   inkscape:version="1.3 (0e150ed6c4, 2023-07-21)"
   xmlns:inkscape="http://www.inkscape.org/namespaces/inkscape"
   xmlns:sodipodi="http://sodipodi.sourceforge.net/DTD/sodipodi-0.dtd"
   xmlns="http://www.w3.org/2000/svg"
   xmlns:svg="http://www.w3.org/2000/svg"><defs
   id="defs21" /><sodipodi:namedview
   id="namedview21"
   pagecolor="#505050"
   bordercolor="#eeeeee"
   borderopacity="1"
   inkscape:showpageshadow="0"
   inkscape:pageopacity="0"
   inkscape:pagecheckerboard="0"
   inkscape:deskcolor="#505050"
   inkscape:zoom="1.7203037"
   inkscape:cx="188.62948"
   inkscape:cy="217.98477"
   inkscape:window-width="1920"
   inkscape:window-height="1017"
   inkscape:window-x="-8"
   inkscape:window-y="-8"
   inkscape:window-maximized="1"
   inkscape:current-layer="svg21" />&#10;    &#10;    &#10;<circle
   style="clip-rule:evenodd;fill:#455a64;fill-opacity:1;fill-rule:evenodd;stroke-width:10;stroke-linecap:round;stroke-linejoin:round;stroke-miterlimit:2"
   id="path1-5"
   cx="117.50783"
   cy="63.378548"
   r="27.902048" /><circle
   style="clip-rule:evenodd;fill:#455a64;fill-opacity:1;fill-rule:evenodd;stroke-width:10;stroke-linecap:round;stroke-linejoin:round;stroke-miterlimit:2"
   id="path1-5-89"
   cx="68.581284"
   cy="144.81534"
   r="27.902048" /><circle
   style="clip-rule:evenodd;fill:#455a64;fill-rule:evenodd;stroke-width:10;stroke-linecap:round;stroke-linejoin:round;stroke-miterlimit:2;fill-opacity:1"
   id="path1-5-1"
   cx="212.85748"
   cy="111.67041"
   r="27.902048" /><circle
   style="clip-rule:evenodd;fill:#455a64;fill-rule:evenodd;stroke-width:10;stroke-linecap:round;stroke-linejoin:round;stroke-miterlimit:2;fill-opacity:1"
   id="path1-5-64"
   cx="293.4187"
   cy="52.015652"
   r="27.902048" /><circle
   style="clip-rule:evenodd;fill:#455a64;fill-rule:evenodd;stroke-width:10;stroke-linecap:round;stroke-linejoin:round;stroke-miterlimit:2;fill-opacity:1"
   id="path1-5-0"
   cx="318.79285"
   cy="136.95102"
   r="27.902048" /><path
   style="color:#000000;clip-rule:evenodd;fill:#607d8b;fill-opacity:1;fill-rule:evenodd;stroke-width:1;stroke-linecap:round;stroke-linejoin:round;stroke-miterlimit:2;-inkscape-stroke:none;paint-order:stroke fill markers"
   d="m 194.0283,70.631285 v 10.222229 c -19.5702,1.583315 -35.24602,17.02448 -36.86949,36.381456 h -9.73443 v 6.63502 h 9.73443 c 1.62343,19.357 17.29926,34.79813 36.86949,36.38144 v 10.22224 h 6.63478 v -10.22246 c 19.57013,-1.58343 35.24605,-17.0243 36.86949,-36.38122 h 9.73443 v -6.63502 h -9.73443 C 235.90909,97.878074 220.23319,82.437159 200.66308,80.853745 v -10.22246 z m 0,16.213696 v 5.901773 a 28.042935,28.042935 0 0 1 3.31727,-0.23723 28.042935,28.042935 0 0 1 3.31751,0.20525 v -5.869793 c 16.35465,1.535778 29.29706,14.306119 30.87663,30.389989 h -6.3562 a 28.042935,28.042935 0 0 1 0.20502,3.31752 28.042935,28.042935 0 0 1 -0.23725,3.3175 h 6.38843 c -1.57956,16.08386 -14.52198,28.85421 -30.87663,30.38998 v -5.90178 a 28.042935,28.042935 0 0 1 -3.31751,0.23724 28.042935,28.042935 0 0 1 -3.31727,-0.23724 v 5.90178 c -16.35464,-1.53576 -29.2971,-14.30612 -30.87663,-30.38998 h 6.38843 a 28.042935,28.042935 0 0 1 -0.23725,-3.3175 28.042935,28.042935 0 0 1 0.23725,-3.31752 h -6.38843 c 1.57954,-16.08388 14.52199,-28.854219 30.87663,-30.389989 z"
   id="path12" /><path
   style="fill:#455a64;fill-opacity:1;stroke-width:1"
   d="m 65.537379,58.248296 c -0.61235,-1.33748 0.54527,-3.970828 -0.72567,-4.448348 -3.25661,-0.17285 -6.65065,0.28733 -9.78023,-0.81697 -1.83939,-0.8106 -4.88823,-2.31802 -2.7531,-4.47407 0.71581,-1.07903 1.18194,-3.88897 1.72125,-4.00614 0.72199,1.89774 2.31405,3.54476 4.42661,3.70055 2.28939,0.42505 4.62658,0.25431 6.94033,0.299 0.31195,-1.48556 -0.68254,-4.27129 0.6538,-4.88046 1.96232,0.83978 3.13765,2.85955 4.82949,4.12814 1.346255,1.32572 4.125465,3.08124 1.637705,4.80679 -2.093655,1.67322 -3.734185,3.83489 -5.864135,5.460888 -0.30611,0.0707 -0.91492,0.79607 -1.08605,0.23062 z M 34.346152,54.146158 c -0.545398,-1.50243 -1.335231,-4.66537 0.809697,-5.07367 2.41777,-0.34483 4.94812,0.23838 7.30241,-0.48564 3.36125,-1.6716 4.37217,-5.62829 5.17646,-8.98405 1.04207,-4.09332 3.25592,-8.56973 7.58328,-9.91854 3.15586,-0.90971 6.47831,-0.52645 9.71881,-0.72593 0.94927,-0.68645 -0.022,-3.00201 0.59497,-4.24381 1.53576,-0.44617 2.94668,2.26745 4.34429,3.16112 1.116715,1.53207 4.935485,3.12902 2.913265,5.19989 -2.161575,2.06143 -4.248665,4.20897 -6.507675,6.17103 -1.79137,-0.26144 -0.59065,-2.9894 -0.88317,-4.30419 -0.55775,-1.36865 -3.16315,-0.27811 -4.52157,-0.61163 -2.32449,0.0748 -5.11079,0.42949 -6.3709,2.67249 -2.26107,4.00474 -2.32772,8.98786 -5.22208,12.68847 -2.35652,3.11748 -6.27168,5.01058 -10.19514,4.65223 -1.57692,0.0155 -3.2194,0.37712 -4.742647,-0.19777 z m 11.240157,-17.40914 c -1.29362,-2.00667 -3.56855,-3.23213 -5.97116,-2.89302 -1.711,-0.22709 -4.190003,0.32751 -5.414202,-0.5508 -0.413796,-1.88251 -0.80773,-5.46133 2.208432,-4.85645 3.6593,-0.15316 7.74209,-0.19138 10.70885,2.30269 2.88408,0.9808 -1.25716,6.6273 -1.53192,5.99758 z"
   id="path1"
   sodipodi:nodetypes="cccccccccccccccccccccccccccccccccc" /></svg>
